<?xml version="1.0" encoding="UTF-8"?>
<svg id="Camada_2" data-name="Camada 2" xmlns="http://www.w3.org/2000/svg" viewBox="0 0 576.09 174.9">
  <defs>
    <style>
      .cls-1 {
        fill: #dc3545;
      }
    </style>
  </defs>
  <g id="Camada_1-2" data-name="Camada 1">
    <g>
      <path class="cls-1" d="M91.02,62.29c0,12.24-8.16,20.4-20.4,20.4H0V1.11H67.13c12.24,0,20.4,8.16,20.4,20.4,0,9.44-7.93,20.4-16.9,20.4,11.77,0,20.4,8.16,20.4,20.4ZM44.52,28.03c2.56,0,4.31-1.75,4.31-4.31s-1.75-4.31-4.31-4.31-4.31,1.75-4.31,4.31,1.75,4.31,4.31,4.31Zm0,33.45c2.56,0,4.31-1.75,4.31-4.31s-1.75-4.31-4.31-4.31-4.31,1.75-4.31,4.31,1.75,4.31,4.31,4.31Z"/>
      <path class="cls-1" d="M142.23,1.11V37.99c1.48,.6,2.44,2,2.44,3.91,0,2.56-1.75,4.31-4.31,4.31s-4.31-1.75-4.31-4.31c0-1.84,.91-3.27,2.44-3.93V1.11h-42.3V41.9c0,29.25,13.28,41.84,44.17,41.84s44.17-12.59,44.17-41.84V1.11h-42.3Z"/>
      <path class="cls-1" d="M193.16,1.11h67.01c16.08,0,26.81,10.49,26.81,26.11,0,10.26-4.55,18.3-12.12,22.61l14.92,32.87h-40.21c0-4.9-3.15-8.27-8.04-8.27s-8.16,3.38-8.16,8.27h-40.21V1.11Zm44.4,38.93c2.56,0,4.31-1.75,4.31-4.31s-1.75-4.31-4.31-4.31-4.31,1.75-4.31,4.31,1.75,4.31,4.31,4.31Z"/>
      <path class="cls-1" d="M338.92,43.73v2.42h-.23c-1.05,0,0,0-1.05,0-2.56,0-4.31-1.75-4.31-4.31s1.75-4.31,4.31-4.31c1.81,0,3.19,.96,3.83,2.42h41.02c-.59-27.91-15.28-39.95-45.43-39.95s-44.29,12.59-44.29,41.84,13.4,41.84,44.29,41.84c13.64,0,21.33-6.76,25.64-15.85v14.8h19.81V43.73h-43.59Z"/>
      <path class="cls-1" d="M391.13,1.05h79.72V25.94h-39.51v3.78h37.18v23.01h-37.18v3.78h39.51v26.12h-79.72V1.05Z"/>
      <path class="cls-1" d="M479.48,1.05h67.01c16.08,0,26.81,10.49,26.81,26.11,0,10.26-4.55,18.3-12.12,22.61l14.92,32.87h-40.21c0-4.9-3.15-8.27-8.04-8.27s-8.16,3.38-8.16,8.27h-40.21V1.05Zm44.4,38.93c2.56,0,4.31-1.75,4.31-4.31s-1.75-4.31-4.31-4.31-4.31,1.75-4.31,4.31,1.75,4.31,4.31,4.31Z"/>
      <path class="cls-1" d="M196.27,154.5c0,12.24-8.16,20.4-20.4,20.4H105.24V91.31h67.13c12.24,0,20.4,10.16,20.4,22.4,0,9.44-7.92,20.4-16.9,20.4,11.77,0,20.4,8.16,20.4,20.4Zm-46.5-34.26c2.56,0,4.31-1.75,4.31-4.31s-1.75-4.31-4.31-4.31-4.31,1.75-4.31,4.31,1.75,4.31,4.31,4.31Zm0,33.45c2.56,0,4.31-1.75,4.31-4.31s-1.75-4.31-4.31-4.31-4.31,1.75-4.31,4.31,1.75,4.31,4.31,4.31Z"/>
      <path class="cls-1" d="M221.89,147.74l-28.72-56.43h40.42c0,4.9,3.07,8.27,7.95,8.27s7.83-3.38,7.83-8.27h40.42l-28.72,56.66v26.92h-39.17v-27.16Z"/>
      <path class="cls-1" d="M319.04,133.52h-24.95v-42.21h89.32v42.21h-25.06v41.37h-39.31v-41.37Z"/>
      <path class="cls-1" d="M391.78,91.31h79.72v27.03h-39.51v3.78h37.18v22.92h-37.18v3.78h39.51v26.06h-79.72V91.31Z"/>
    </g>
  </g>
</svg>