<?xml version="1.0" encoding="UTF-8"?>
<svg id="Camada_2" data-name="Camada 2" xmlns="http://www.w3.org/2000/svg" viewBox="0 0 993.45 324.79">
  <defs>
    <style>
      .cls-1 {
        fill: #fc0a00;
      }
    </style>
  </defs>
  <g id="Camada_1-2" data-name="Camada 1">
    <g>
      <path class="cls-1" d="M156.27,99.82v57.04H0V0H156.27V57.04l-16.74,21.39,16.74,21.39Zm-44.65-57.04H44.65v14.26H111.62v-14.26Zm0,57.04H44.65v14.26H111.62v-14.26Z"/>
      <path class="cls-1" d="M279.06,0h44.65V156.86H167.44V0h44.65V114.08h66.97V0Z"/>
      <path class="cls-1" d="M390.68,99.82h-11.16v57.04h-44.65V0h156.27V99.82h-44.65l44.65,57.04h-55.81l-44.65-57.04Zm55.81-57.04h-66.97v14.26h66.97v-14.26Z"/>
      <path class="cls-1" d="M558.12,99.82V57.04h100.46v99.82h-156.27V0h156.27V42.78h-111.62V114.08h66.97v-14.26h-55.81Z"/>
      <path class="cls-1" d="M669.74,0h156.27V99.82h-111.62v14.26h111.62v42.78h-156.27V0Zm111.62,42.78h-66.97v14.26h66.97v-14.26Z"/>
      <path class="cls-1" d="M892.99,99.82h-11.16v57.04h-44.65V0h156.27V99.82h-44.65l44.65,57.04h-55.81l-44.65-57.04Zm55.81-57.04h-66.97v14.26h66.97v-14.26Z"/>
      <path class="cls-1" d="M323.71,267.75v57.04H167.44V167.93h156.27v57.04l-16.74,21.39,16.74,21.39Zm-44.65-57.04h-66.97v14.26h66.97v-14.26Zm0,57.04h-66.97v14.26h66.97v-14.26Z"/>
      <path class="cls-1" d="M446.49,167.93h44.65v156.86h-156.27v-42.78h111.62v-14.26h-111.62v-99.82h44.65v57.04h66.97v-57.04Z"/>
      <path class="cls-1" d="M558.12,210.71h-55.81v-42.78h156.27v42.78h-55.81v114.08h-44.65v-114.08Z"/>
      <path class="cls-1" d="M669.74,167.93h156.27v99.82h-111.62v14.26h111.62v42.78h-156.27V167.93Zm111.62,42.78h-66.97v14.26h66.97v-14.26Z"/>
    </g>
  </g>
</svg>